<?xml version="1.0" encoding="UTF-8" standalone="no"?>
<!-- Created with Inkscape (http://www.inkscape.org/) -->

<svg
   version="1.1"
   id="svg57"
   xml:space="preserve"
   width="843"
   height="255"
   viewBox="0 0 843.00003 255.00001"
   sodipodi:docname="logo3.svg"
   inkscape:version="1.1.1 (26b7af14f2, 2022-01-19)"
   xmlns:inkscape="http://www.inkscape.org/namespaces/inkscape"
   xmlns:sodipodi="http://sodipodi.sourceforge.net/DTD/sodipodi-0.dtd"
   xmlns="http://www.w3.org/2000/svg"
   xmlns:svg="http://www.w3.org/2000/svg"><defs
     id="defs61"><clipPath
       clipPathUnits="userSpaceOnUse"
       id="clipPath73"><path
         d="M 0,1000 H 1000 V 0 H 0 Z"
         id="path71" /></clipPath></defs><sodipodi:namedview
     id="namedview59"
     pagecolor="#ffffff"
     bordercolor="#666666"
     borderopacity="1.0"
     inkscape:pageshadow="2"
     inkscape:pageopacity="0.0"
     inkscape:pagecheckerboard="true"
     showgrid="false"
     inkscape:zoom="0.95141223"
     inkscape:cx="425.68299"
     inkscape:cy="53.07899"
     inkscape:window-width="1850"
     inkscape:window-height="1136"
     inkscape:window-x="70"
     inkscape:window-y="27"
     inkscape:window-maximized="1"
     inkscape:current-layer="g69" /><g
     id="g63"
     inkscape:groupmode="layer"
     inkscape:label="Logo"
     transform="matrix(1.3333333,0,0,-1.3333333,0,1333.3333)"><g
       id="g67"
       transform="translate(-183.94648,404.68226)"><g
         id="g69"
         clip-path="url(#clipPath73)"><g
           id="g75"
           transform="translate(398.8618,517.1665)"
           style="fill:#e6e6e6"><path
             d="m 0,0 h 17.25 l -0.383,-8.434 c 3.833,6.645 8.944,9.583 15.461,9.583 7.028,0 12.011,-2.938 15.333,-9.327 4.472,5.622 10.478,9.327 18.527,9.327 13.673,0 21.596,-9.072 21.596,-24.022 V -54.434 H 70.662 v 30.028 c 0,6.389 -2.045,9.839 -8.562,9.839 -6.644,0 -9.583,-3.323 -9.583,-10.733 V -54.434 H 35.395 v 30.028 c 0,6.389 -1.917,9.839 -8.434,9.839 -6.644,0 -9.711,-3.323 -9.711,-10.733 V -54.434 H 0 Z"
             style="fill:#e6e6e6;fill-opacity:1;fill-rule:nonzero;stroke:none"
             id="path77" /></g><g
           id="g79"
           transform="translate(513.3242,462.7324)"
           style="fill:#e6e6e6"><path
             d="M 0,0 H -17.25 V 92.256 H 0 V 45.234 C 0,41.145 -0.383,36.928 -0.894,33.478 L 16.994,54.434 H 36.161 L 16.867,32.2 38.205,0 H 18.146 L 4.601,20.572 0,15.717 Z"
             style="fill:#e6e6e6;fill-opacity:1;fill-rule:nonzero;stroke:none"
             id="path81" /></g><g
           id="g83"
           transform="translate(596.2715,487.2666)"
           style="fill:#75aaff;fill-opacity:1"><path
             d="m 0,0 c 0,2.811 0.639,7.922 0.639,7.922 0,0 -2.044,-2.812 -4.345,-5.239 l -9.199,-9.711 c -2.428,-2.556 -5.24,-4.6 -5.24,-4.6 0,0 3.068,0.383 6.645,0.383 H 0 Z M 26.194,-11.245 V -24.534 H 17.378 V -36.545 H 0 v 12.011 h -36.928 v 11.756 l 52.517,55.711 h 1.789 v -54.178 z"
             style="fill:#75aaff;fill-opacity:1;fill-rule:nonzero;stroke:none"
             id="path85" /></g><g
           id="g87"
           transform="translate(667.1855,509.5635)"
           style="fill:#75aaff;fill-opacity:1"><path
             d="m 0,0 c 0,4.216 -2.939,6.9 -6.9,6.9 -3.961,0 -7.157,-2.684 -7.157,-6.9 0,-4.089 3.196,-6.9 7.157,-6.9 3.961,0 6.9,2.811 6.9,6.9 m 4.855,-32.328 c 0,6.516 -4.472,12.011 -11.883,12.011 -7.411,0 -11.884,-5.495 -11.884,-12.011 0,-6.517 4.473,-11.5 11.884,-11.5 7.411,0 11.883,4.983 11.883,11.5 m -41.911,-1.405 c 0,10.477 6.261,17.25 15.077,20.572 -4.982,2.811 -9.071,7.283 -9.071,14.438 0,9.584 8.689,19.806 24.15,19.806 15.588,0 23.894,-10.222 23.894,-19.806 0,-7.155 -3.961,-11.627 -8.945,-14.438 8.817,-3.322 14.95,-10.095 14.95,-20.572 0,-14.951 -12.394,-25.428 -30.027,-25.428 -17.378,0 -30.028,10.477 -30.028,25.428"
             style="fill:#75aaff;fill-opacity:1;fill-rule:nonzero;stroke:none"
             id="path89" /></g><g
           id="g91"
           transform="translate(697.9014,472.8271)"
           style="fill:#e6e6e6"><path
             d="m 0,0 c 0,6.261 4.983,10.733 10.861,10.733 5.75,0 10.734,-4.472 10.734,-10.733 0,-6.389 -4.984,-10.86 -10.734,-10.86 C 4.983,-10.86 0,-6.389 0,0"
             style="fill:#e6e6e6;fill-opacity:1;fill-rule:nonzero;stroke:none"
             id="path93" /></g><path
           d="m 728.288,517.167 h 17.25 v -54.434 h -17.25 z m -2.3,19.932 c 0,6.261 5.112,10.734 10.989,10.734 5.877,0 10.861,-4.473 10.861,-10.734 0,-6.389 -4.984,-10.861 -10.861,-10.861 -5.877,0 -10.989,4.472 -10.989,10.861"
           style="fill:#e6e6e6;fill-opacity:1;fill-rule:nonzero;stroke:none"
           id="path95" /><g
           id="g97"
           transform="translate(796.3682,489.8213)"
           style="fill:#e6e6e6"><path
             d="M 0,0 C 0,8.178 -4.6,13.672 -12.267,13.672 -19.933,13.672 -24.66,8.178 -24.66,0 c 0,-8.05 4.727,-13.672 12.393,-13.672 C -4.6,-13.672 0,-8.05 0,0 m -42.294,0 c 0,16.611 13.161,28.495 30.027,28.495 16.868,0 29.901,-11.884 29.901,-28.495 0,-16.483 -13.033,-28.238 -29.901,-28.238 -16.866,0 -30.027,11.755 -30.027,28.238"
             style="fill:#e6e6e6;fill-opacity:1;fill-rule:nonzero;stroke:none"
             id="path99" /></g><g
           id="g101"
           transform="translate(202.5488,481.252)"><path
             d="M 0,0 0.096,0.056 -3.698,1.842 Z"
             style="fill:#e6e6e6;fill-opacity:1;fill-rule:nonzero;stroke:none"
             id="path103" /></g><g
           id="g105"
           transform="translate(266.8604,486.6553)"><path
             d="M 0,0 60.414,28.089 C 39.935,20.15 18.642,9.823 0,0"
             style="fill:#e6e6e6;fill-opacity:1;fill-rule:nonzero;stroke:none"
             id="path107" /></g><g
           id="g109"
           transform="translate(349.3447,442.127)"
           style="fill:#e6e6e6"><path
             d="M 0,0 -0.676,29.945 -1.558,68.989 -14.875,63.506 -137.534,13.01 12.702,83.6 Z M 16.033,90.333 -22.071,72.617 -82.484,44.528 -153.244,11.63 c 15.157,-7.47 33.096,-10.915 50.191,-9.368 7.858,0.71 15.096,3.421 22.761,6.29 1.543,0.578 3.092,1.158 4.653,1.724 20.073,7.282 40.643,6.301 57.921,-2.761 7.112,-3.73 12.999,-9.664 17.689,-15.913 L 34.72,45.445 c 0.093,0.039 0.182,0.087 0.277,0.123 1.794,2.967 2.9,4.8 2.9,4.8 z"
             style="fill:#e6e6e6;fill-opacity:1;fill-rule:nonzero;stroke:none"
             id="path111" /></g><g
           id="g113"
           transform="translate(327.4404,441.6602)"
           style="fill:#75aaff;fill-opacity:1"><path
             d="m 0,0 c -15.007,7.871 -33,8.678 -50.661,2.271 -1.532,-0.556 -3.052,-1.125 -4.567,-1.693 -7.886,-2.953 -16.041,-6.006 -25.109,-6.826 -16.778,-1.518 -34.32,1.37 -49.768,7.893 10.06,-12.388 60.652,-66.215 145.247,-15.607 C 11.07,-8.4 6.007,-3.15 0,0"
             style="fill:#75aaff;fill-opacity:1;fill-rule:nonzero;stroke:none"
             id="path115" /></g><g
           id="g117"
           transform="translate(373.1577,579.9224)"
           style="fill:#e6e6e6"><path
             d="m 0,0 c -1.276,-1.751 -4.141,-1.839 -6.396,-0.195 -2.256,1.644 -3.05,4.397 -1.773,6.149 1.276,1.752 4.14,1.839 6.396,0.195 C 0.483,4.505 1.277,1.752 0,0 m -91.021,-53.883 -2.893,22.686 -11.128,10.237 14.021,-8.234 z m -13.787,-3.075 -15.033,-13.112 v 12.066 l 15.033,16.192 z m -17.766,-15.496 -11.388,-9.933 v 9.173 l 11.388,12.266 z m 13.439,62.847 v -24.689 l -2.893,22.686 -11.128,10.237 z m -72.088,-88.877 c -0.635,-1.595 -2.154,-2.487 -3.392,-1.994 -1.238,0.493 -1.727,2.186 -1.092,3.78 0.636,1.595 2.154,2.488 3.393,1.994 1.238,-0.494 1.727,-2.186 1.091,-3.78 m 12.801,18.227 c -0.636,-1.595 -2.155,-2.488 -3.393,-1.994 -1.238,0.493 -1.727,2.186 -1.092,3.78 0.636,1.595 2.155,2.487 3.393,1.994 1.238,-0.493 1.727,-2.186 1.092,-3.78 M -47.599,5.954 c 1.277,1.752 4.141,1.839 6.397,0.195 2.256,-1.644 3.05,-4.397 1.773,-6.149 -1.277,-1.751 -4.141,-1.839 -6.397,-0.195 -2.256,1.644 -3.049,4.397 -1.773,6.149 m 46.165,2.023 c -3.733,2.582 -8.856,1.612 -11.387,-2.155 l -19.342,-26.782 -16.045,-22.254 6.782,14.375 -5.499,3.175 -12.635,-7.294 -13.88,-11.369 16.985,19.6 17.121,20.685 c 3.166,3.664 2.454,9.265 -1.529,12.019 -3.733,2.582 -8.856,1.612 -11.387,-2.155 l -28.805,-39.885 h -6.182 v 7.977 l -17.782,10.266 v 9.064 l -8.766,5.061 v 2.301 h 9.239 v 2.352 h -9.239 v 4.614 l -6.908,6.111 -7.203,-6.111 V 2.958 h -10.161 V 0.606 h 10.161 v -1.104 l -10.84,-6.258 v -20.038 h 3.616 v -12.604 l -10.083,-5.821 v -31.338 l 8.76,1.507 2.397,-2.065 -2.818,1.612 -5.7,3.259 c 0.809,-3.206 -0.93,-7.16 -5.209,-7.16 -1.251,0 -2.28,0.341 -3.096,0.898 l -3.267,-1.886 7.374,-5.773 1.525,-1.193 -1.748,0.953 -12.054,6.574 -8.082,4.027 c -2.665,1.327 -5.893,0.049 -6.926,-2.743 -0.969,-2.618 0.39,-5.522 3.02,-6.454 l 14.922,-5.295 -12.294,-7.099 7.052,-5.535 -9.166,4.315 -0.096,-0.055 -3.698,1.841 -5.614,2.798 c -2.665,1.327 -5.893,0.049 -6.926,-2.743 -0.968,-2.617 0.39,-5.521 3.02,-6.454 l 12.482,-4.43 -8.379,-9.532 152.12,70.727 v 8.956 L 0.095,-4.042 c 3.167,3.664 2.454,9.265 -1.529,12.019"
             style="fill:#e6e6e6;fill-opacity:1;fill-rule:nonzero;stroke:none"
             id="path119" /></g><g
           id="g121"
           transform="translate(239.1953,511.5996)"
           style="fill:#e6e6e6"><path
             d="m 0,0 -20.173,-12.069 13.404,-6.055 c 0,0 4.89,-0.426 6.769,0.759 z"
             style="fill:#e6e6e6;fill-opacity:1;fill-rule:nonzero;stroke:none"
             id="path123" /></g></g></g></g></svg>
